# Blender v2.82 (sub 7) OBJ File: ''
# www.blender.org
o Plane
v -0.000000 -0.999990 -6.361835
v 0.000000 0.999990 -6.361835
v 0.000000 -0.999990 -6.370561
v -0.414704 0.998205 -6.399466
v -0.626052 0.995764 -6.397748
v -0.838835 0.992294 -6.381944
v -1.052092 0.987800 -6.351834
v -1.264836 0.982284 -6.307270
v -1.476059 0.975753 -6.248170
v -1.684740 0.968215 -6.174529
v -1.889846 0.959675 -6.086412
v -2.090341 0.950144 -5.983967
v -2.285190 0.939632 -5.867414
v -2.473366 0.928148 -5.737054
v -2.653857 0.915706 -5.593264
v -2.825673 0.902317 -5.436500
v -2.987846 0.887996 -5.267293
v -3.139445 0.872757 -5.086251
v -3.279576 0.856617 -4.894054
v -3.407391 0.839591 -4.691452
v -3.522092 0.821698 -4.479264
v -3.622937 0.802956 -4.258370
v -3.709246 0.783384 -4.029713
v -3.780407 0.763002 -3.794289
v -3.835876 0.741833 -3.553144
v -3.875188 0.719896 -3.307371
v -3.897956 0.697216 -3.058102
v -3.903875 0.673816 -2.806500
v -3.892728 0.649719 -2.553756
v -3.864384 0.624951 -2.301082
v -3.818803 0.599537 -2.049702
v -3.756035 0.573504 -1.800847
v -3.676225 0.546878 -1.555748
v -3.579607 0.519687 -1.315624
v -3.466509 0.491959 -1.081685
v -3.337348 0.463723 -0.855114
v -3.192632 0.435007 -0.637066
v -3.032953 0.405842 -0.428657
v -2.858989 0.376258 -0.230963
v -2.671500 0.346285 -0.045009
v -2.471320 0.315954 0.128238
v -2.259357 0.285296 0.287873
v -2.036586 0.254344 0.433058
v -1.804043 0.223129 0.563027
v -1.562824 0.191683 0.677096
v -1.314071 0.160040 0.774661
v -1.058972 0.128231 0.855205
v -0.798751 0.096289 0.918298
v -0.534662 0.064248 0.963607
v -0.267982 0.032141 0.990890
v -0.000003 0.000000 1.000000
v 0.267976 -0.032140 0.990890
v 0.534655 -0.064248 0.963608
v 0.798744 -0.096289 0.918300
v 1.058965 -0.128230 0.855206
v 1.314064 -0.160039 0.774663
v 1.562818 -0.191683 0.677099
v 1.804038 -0.223128 0.563030
v 2.036580 -0.254343 0.433060
v 2.259352 -0.285295 0.287877
v 2.471315 -0.315953 0.128242
v 2.671495 -0.346284 -0.045004
v 2.858985 -0.376257 -0.230958
v 3.032949 -0.405841 -0.428652
v 3.192628 -0.435006 -0.637060
v 3.337345 -0.463722 -0.855109
v 3.466506 -0.491958 -1.081680
v 3.579605 -0.519686 -1.315619
v 3.676223 -0.546877 -1.555742
v 3.756033 -0.573503 -1.800841
v 3.818801 -0.599537 -2.049697
v 3.864383 -0.624951 -2.301077
v 3.892728 -0.649719 -2.553751
v 3.903875 -0.673815 -2.806495
v 3.897956 -0.697216 -3.058097
v 3.875189 -0.719896 -3.307367
v 3.835877 -0.741832 -3.553139
v 3.780408 -0.763002 -3.794284
v 3.709248 -0.783383 -4.029708
v 3.622939 -0.802955 -4.258366
v 3.522094 -0.821697 -4.479259
v 3.407393 -0.839591 -4.691448
v 3.279579 -0.856616 -4.894051
v 3.139448 -0.872757 -5.086247
v 2.987849 -0.887995 -5.267290
v 2.825676 -0.902317 -5.436497
v 2.653861 -0.915705 -5.593261
v 2.473370 -0.928148 -5.737051
v 2.285193 -0.939632 -5.867412
v 2.090343 -0.950144 -5.983966
v 1.889849 -0.959675 -6.086411
v 1.684742 -0.968214 -6.174527
v 1.476062 -0.975753 -6.248169
v 1.264838 -0.982284 -6.307269
v 1.052093 -0.987799 -6.351834
v 0.838836 -0.992294 -6.381944
v 0.626053 -0.995764 -6.397748
v 0.414705 -0.998205 -6.399466
v 0.205721 -0.999614 -6.387380
v -0.000000 0.999990 -6.370561
v 0.202162 0.999614 -6.331935
v 0.399386 0.998205 -6.280663
v 0.590900 0.995764 -6.217249
v 0.775979 0.992294 -6.142244
v 0.953948 0.987800 -6.056240
v 1.124186 0.982284 -5.959864
v 1.286129 0.975753 -5.853774
v 1.439263 0.968215 -5.738657
v 1.583134 0.959675 -5.615221
v 1.717347 0.950144 -5.484189
v 1.841559 0.939632 -5.346300
v 1.955485 0.928148 -5.202299
v 2.058897 0.915706 -5.052936
v 2.151619 0.902317 -4.898960
v 2.233531 0.887996 -4.741115
v 2.304561 0.872757 -4.580139
v 2.364688 0.856617 -4.416757
v 2.413939 0.839591 -4.251679
v 2.452382 0.821698 -4.085600
v 2.480131 0.802956 -3.919190
v 2.497336 0.783384 -3.753101
v 2.504187 0.763002 -3.587958
v 2.500904 0.741833 -3.424360
v 2.487739 0.719896 -3.262877
v 2.464971 0.697216 -3.104054
v 2.432905 0.673816 -2.948401
v 2.391867 0.649719 -2.796402
v 2.342201 0.624951 -2.648509
v 2.284268 0.599537 -2.505142
v 2.218442 0.573504 -2.366694
v 2.145109 0.546878 -2.233525
v 2.064662 0.519687 -2.105968
v 1.977502 0.491959 -1.984328
v 1.884034 0.463723 -1.868881
v 1.784666 0.435007 -1.759878
v 1.679808 0.405842 -1.657545
v 1.569868 0.376258 -1.562085
v 1.455255 0.346285 -1.473677
v 1.336375 0.315954 -1.392482
v 1.213631 0.285296 -1.318639
v 1.087425 0.254344 -1.252270
v 0.958152 0.223129 -1.193481
v 0.826206 0.191683 -1.142361
v 0.691976 0.160040 -1.098984
v 0.555849 0.128231 -1.063413
v 0.418208 0.096289 -1.035698
v 0.279434 0.064248 -1.015874
v 0.139906 0.032141 -1.003970
v 0.000002 0.000000 -1.000000
v -0.139903 -0.032140 -1.003970
v -0.279431 -0.064248 -1.015874
v -0.418205 -0.096289 -1.035697
v -0.555846 -0.128230 -1.063413
v -0.691972 -0.160039 -1.098983
v -0.826202 -0.191683 -1.142359
v -0.958148 -0.223128 -1.193480
v -1.087421 -0.254343 -1.252269
v -1.213628 -0.285295 -1.318638
v -1.336372 -0.315953 -1.392480
v -1.455252 -0.346284 -1.473675
v -1.569865 -0.376257 -1.562083
v -1.679805 -0.405841 -1.657543
v -1.784664 -0.435006 -1.759876
v -1.884032 -0.463722 -1.868878
v -1.977500 -0.491958 -1.984325
v -2.064660 -0.519686 -2.105966
v -2.145107 -0.546877 -2.233522
v -2.218441 -0.573503 -2.366691
v -2.284267 -0.599537 -2.505139
v -2.342200 -0.624951 -2.648506
v -2.391866 -0.649719 -2.796399
v -2.432905 -0.673815 -2.948398
v -2.464970 -0.697216 -3.104051
v -2.487738 -0.719896 -3.262875
v -2.500903 -0.741832 -3.424357
v -2.504187 -0.763002 -3.587955
v -2.497337 -0.783383 -3.753098
v -2.480131 -0.802955 -3.919187
v -2.452383 -0.821697 -4.085597
v -2.413939 -0.839591 -4.251677
v -2.364690 -0.856616 -4.416754
v -2.304562 -0.872757 -4.580136
v -2.233532 -0.887995 -4.741112
v -2.151621 -0.902317 -4.898956
v -2.058899 -0.915705 -5.052933
v -1.955487 -0.928148 -5.202296
v -1.841561 -0.939632 -5.346297
v -1.717349 -0.950144 -5.484187
v -1.583137 -0.959675 -5.615219
v -1.439264 -0.968214 -5.738656
v -1.286131 -0.975753 -5.853773
v -1.124188 -0.982284 -5.959863
v -0.953949 -0.987799 -6.056239
v -0.775979 -0.992294 -6.142244
v -0.590901 -0.995764 -6.217249
v -0.399387 -0.998205 -6.280663
vt 0.000000 0.000000
vt 0.020408 1.000000
vt 0.000000 1.000000
vt 0.030612 0.000000
vt 0.020408 0.000000
vt 0.040816 0.000000
vt 0.030612 1.000000
vt 0.051020 0.000000
vt 0.040816 1.000000
vt 0.061224 0.000000
vt 0.051020 1.000000
vt 0.071429 0.000000
vt 0.061225 1.000000
vt 0.081633 0.000000
vt 0.071429 1.000000
vt 0.091837 0.000000
vt 0.081633 1.000000
vt 0.102041 0.000000
vt 0.091837 1.000000
vt 0.112245 0.000000
vt 0.102041 1.000000
vt 0.122449 0.000000
vt 0.112245 1.000000
vt 0.132653 0.000000
vt 0.122449 1.000000
vt 0.142857 0.000000
vt 0.132653 1.000000
vt 0.153061 0.000000
vt 0.142857 1.000000
vt 0.163265 0.000000
vt 0.153061 1.000000
vt 0.173469 0.000000
vt 0.163265 1.000000
vt 0.183673 0.000000
vt 0.173469 1.000000
vt 0.193878 0.000000
vt 0.183674 1.000000
vt 0.204082 0.000000
vt 0.193878 1.000000
vt 0.214286 0.000000
vt 0.204082 1.000000
vt 0.224490 0.000000
vt 0.214286 1.000000
vt 0.234694 0.000000
vt 0.224490 1.000000
vt 0.244898 0.000000
vt 0.234694 1.000000
vt 0.255102 1.000000
vt 0.244898 1.000000
vt 0.255102 0.000000
vt 0.265306 1.000000
vt 0.265306 0.000000
vt 0.275510 1.000000
vt 0.275510 0.000000
vt 0.285714 1.000000
vt 0.285714 0.000000
vt 0.295919 1.000000
vt 0.295918 0.000000
vt 0.306123 1.000000
vt 0.306122 0.000000
vt 0.316327 1.000000
vt 0.316327 0.000000
vt 0.326531 1.000000
vt 0.326531 0.000000
vt 0.336735 1.000000
vt 0.336735 0.000000
vt 0.346939 1.000000
vt 0.346939 0.000000
vt 0.357143 1.000000
vt 0.357143 0.000000
vt 0.367347 1.000000
vt 0.367347 0.000000
vt 0.377551 1.000000
vt 0.377551 0.000000
vt 0.387755 1.000000
vt 0.387755 0.000000
vt 0.397959 1.000000
vt 0.397959 0.000000
vt 0.408163 1.000000
vt 0.408163 0.000000
vt 0.418368 1.000000
vt 0.418367 0.000000
vt 0.428572 1.000000
vt 0.428571 0.000000
vt 0.438776 1.000000
vt 0.438776 0.000000
vt 0.448980 1.000000
vt 0.448980 0.000000
vt 0.459184 1.000000
vt 0.459184 0.000000
vt 0.469388 1.000000
vt 0.469388 0.000000
vt 0.479592 1.000000
vt 0.479592 0.000000
vt 0.489796 1.000000
vt 0.489796 0.000000
vt 0.500000 1.000000
vt 0.500000 0.000000
vt 0.510204 1.000000
vt 0.510204 0.000000
vt 0.520408 1.000000
vt 0.520408 0.000000
vt 0.530612 1.000000
vt 0.530612 0.000000
vt 0.540816 1.000000
vt 0.540816 0.000000
vt 0.551021 1.000000
vt 0.551020 0.000000
vt 0.561225 1.000000
vt 0.561225 0.000000
vt 0.571429 1.000000
vt 0.571429 0.000000
vt 0.581633 1.000000
vt 0.581633 0.000000
vt 0.591837 1.000000
vt 0.602041 0.000000
vt 0.591837 0.000000
vt 0.612245 0.000000
vt 0.602041 1.000000
vt 0.622449 0.000000
vt 0.612245 1.000000
vt 0.632653 0.000000
vt 0.622449 1.000000
vt 0.642857 0.000000
vt 0.632653 1.000000
vt 0.653061 0.000000
vt 0.642857 1.000000
vt 0.663265 0.000000
vt 0.653061 1.000000
vt 0.673469 0.000000
vt 0.663265 1.000000
vt 0.683674 0.000000
vt 0.673469 1.000000
vt 0.693878 0.000000
vt 0.683674 1.000000
vt 0.704082 0.000000
vt 0.693878 1.000000
vt 0.714286 0.000000
vt 0.704082 1.000000
vt 0.724490 0.000000
vt 0.714286 1.000000
vt 0.734694 0.000000
vt 0.724490 1.000000
vt 0.744898 0.000000
vt 0.734694 1.000000
vt 0.755102 0.000000
vt 0.744898 1.000000
vt 0.765306 1.000000
vt 0.755102 1.000000
vt 0.765306 0.000000
vt 0.775510 1.000000
vt 0.775510 0.000000
vt 0.785714 1.000000
vt 0.785714 0.000000
vt 0.795918 1.000000
vt 0.795918 0.000000
vt 0.806122 1.000000
vt 0.806122 0.000000
vt 0.816327 1.000000
vt 0.816326 0.000000
vt 0.826531 1.000000
vt 0.826531 0.000000
vt 0.836735 1.000000
vt 0.836735 0.000000
vt 0.846939 1.000000
vt 0.846939 0.000000
vt 0.857143 1.000000
vt 0.857143 0.000000
vt 0.867347 1.000000
vt 0.867347 0.000000
vt 0.877551 1.000000
vt 0.877551 0.000000
vt 0.887755 1.000000
vt 0.887755 0.000000
vt 0.897959 1.000000
vt 0.897959 0.000000
vt 0.908163 1.000000
vt 0.908163 0.000000
vt 0.918367 1.000000
vt 0.918367 0.000000
vt 0.928571 1.000000
vt 0.928571 0.000000
vt 0.938776 1.000000
vt 0.938775 0.000000
vt 0.948980 1.000000
vt 0.948979 0.000000
vt 0.959184 1.000000
vt 0.959184 0.000000
vt 0.969388 1.000000
vt 0.969388 0.000000
vt 0.979592 1.000000
vt 0.979592 0.000000
vt 0.989796 1.000000
vt 0.989796 0.000000
vt 1.000000 1.000000
vt 1.000000 0.000000
vn 0.2196 -0.0043 0.9756
vn 0.0074 0.0595 0.9982
vn 0.0723 0.0913 0.9932
vn 0.1362 0.1230 0.9830
vn 0.1987 0.1547 0.9678
vn 0.2594 0.1862 0.9477
vn 0.3178 0.2174 0.9229
vn 0.3736 0.2485 0.8937
vn 0.4263 0.2793 0.8604
vn 0.4757 0.3099 0.8232
vn 0.5214 0.3401 0.7826
vn 0.5632 0.3700 0.7389
vn 0.6007 0.3995 0.6925
vn 0.6339 0.4285 0.6438
vn 0.6626 0.4572 0.5933
vn 0.6866 0.4854 0.5413
vn 0.7059 0.5130 0.4884
vn 0.7204 0.5402 0.4350
vn 0.7303 0.5667 0.3815
vn 0.7355 0.5927 0.3283
vn 0.7361 0.6181 0.2760
vn 0.7323 0.6428 0.2249
vn 0.7242 0.6669 0.1754
vn 0.7088 0.6769 -0.1983
vn 0.6724 0.6990 -0.2436
vn 0.6324 0.7203 -0.2849
vn 0.5894 0.7409 -0.3220
vn 0.5437 0.7607 -0.3546
vn 0.4958 0.7797 -0.3824
vn 0.4461 0.7980 -0.4052
vn 0.3952 0.8154 -0.4231
vn 0.3435 0.8320 -0.4357
vn 0.2914 0.8477 -0.4433
vn 0.2396 0.8626 -0.4456
vn 0.1884 0.8765 -0.4429
vn 0.1384 0.8896 -0.4352
vn 0.0901 0.9018 -0.4226
vn 0.0439 0.9131 -0.4053
vn 0.0001 0.9235 -0.3836
vn -0.0406 0.9329 -0.3578
vn -0.0781 0.9414 -0.3281
vn -0.1119 0.9489 -0.2950
vn -0.1417 0.9555 -0.2587
vn -0.1672 0.9611 -0.2197
vn -0.1882 0.9658 -0.1784
vn -0.2045 0.9695 -0.1354
vn -0.2159 0.9722 -0.0910
vn -0.2224 0.9739 -0.0457
vn -0.2239 0.9746 -0.0000
vn -0.2203 0.9744 0.0455
vn -0.2118 0.9731 0.0905
vn -0.1983 0.9709 0.1343
vn -0.1800 0.9677 0.1765
vn -0.1571 0.9635 0.2168
vn -0.1298 0.9583 0.2545
vn -0.0984 0.9522 0.2893
vn -0.0631 0.9451 0.3208
vn 0.2628 0.9504 0.1665
vn 0.2921 0.9406 0.1729
vn 0.3230 0.9299 0.1758
vn 0.3552 0.9182 0.1751
vn 0.3882 0.9056 0.1707
vn 0.4217 0.8921 0.1624
vn 0.4553 0.8776 0.1502
vn 0.4885 0.8622 0.1340
vn 0.5210 0.8459 0.1138
vn 0.5523 0.8288 0.0898
vn 0.5820 0.8108 0.0620
vn 0.6098 0.7920 0.0305
vn 0.6352 0.7723 -0.0045
vn 0.6579 0.7519 -0.0427
vn 0.6775 0.7307 -0.0839
vn 0.6938 0.7087 -0.1279
vn 0.7141 0.6835 0.1511
vn 0.7439 0.6607 0.1004
vn 0.7694 0.6371 0.0467
vn 0.7901 0.6129 -0.0096
vn 0.8060 0.5880 -0.0682
vn 0.8168 0.5624 -0.1285
vn 0.8224 0.5363 -0.1900
vn 0.8226 0.5096 -0.2524
vn 0.8174 0.4823 -0.3150
vn 0.8068 0.4545 -0.3774
vn 0.7909 0.4262 -0.4392
vn 0.7696 0.3975 -0.4997
vn 0.7432 0.3683 -0.5586
vn 0.7118 0.3387 -0.6154
vn 0.6756 0.3087 -0.6695
vn 0.6349 0.2784 -0.7207
vn 0.5899 0.2478 -0.7685
vn 0.5411 0.2169 -0.8125
vn 0.4886 0.1857 -0.8525
vn 0.4331 0.1544 -0.8880
vn 0.3747 0.1229 -0.9190
vn 0.3141 0.0912 -0.9450
vn 0.2516 0.0594 -0.9660
vn 0.1876 0.0276 -0.9819
vn -0.0905 0.0585 0.9942
vn 0.3141 0.0912 0.9450
vn 0.3747 0.1229 0.9190
vn 0.4331 0.1544 0.8880
vn 0.4886 0.1857 0.8525
vn 0.5411 0.2169 0.8125
vn 0.5899 0.2478 0.7685
vn 0.6349 0.2784 0.7207
vn 0.6756 0.3087 0.6695
vn 0.7118 0.3387 0.6154
vn 0.7432 0.3683 0.5586
vn 0.7696 0.3975 0.4997
vn 0.7909 0.4262 0.4392
vn 0.8068 0.4545 0.3775
vn 0.8174 0.4823 0.3150
vn 0.8226 0.5096 0.2524
vn 0.8224 0.5363 0.1900
vn 0.8168 0.5624 0.1285
vn 0.8060 0.5880 0.0682
vn 0.7901 0.6129 0.0096
vn 0.7694 0.6371 -0.0467
vn 0.7439 0.6607 -0.1004
vn 0.7141 0.6835 -0.1511
vn 0.6938 0.7087 0.1279
vn 0.6775 0.7307 0.0839
vn 0.6579 0.7519 0.0427
vn 0.6352 0.7723 0.0045
vn 0.6098 0.7920 -0.0305
vn 0.5820 0.8108 -0.0620
vn 0.5523 0.8288 -0.0898
vn 0.5210 0.8459 -0.1138
vn 0.4885 0.8622 -0.1340
vn 0.4553 0.8776 -0.1502
vn 0.4217 0.8921 -0.1624
vn 0.3882 0.9056 -0.1707
vn 0.3552 0.9182 -0.1751
vn 0.3230 0.9299 -0.1758
vn 0.2921 0.9406 -0.1728
vn 0.2628 0.9504 -0.1665
vn 0.2355 0.9591 -0.1569
vn 0.2104 0.9669 -0.1443
vn 0.1880 0.9737 -0.1291
vn 0.1683 0.9794 -0.1114
vn 0.1517 0.9842 -0.0918
vn 0.1383 0.9879 -0.0704
vn 0.1284 0.9906 -0.0477
vn 0.1219 0.9922 -0.0241
vn 0.1191 0.9929 0.0000
vn 0.1199 0.9925 0.0243
vn 0.1243 0.9911 0.0483
vn 0.1322 0.9886 0.0717
vn 0.1437 0.9851 0.0940
vn 0.1586 0.9806 0.1149
vn 0.1766 0.9751 0.1340
vn 0.1976 0.9686 0.1509
vn 0.2214 0.9611 0.1654
vn 0.2477 0.9525 0.1771
vn 0.0001 0.9235 0.3836
vn 0.0439 0.9131 0.4053
vn 0.0901 0.9018 0.4226
vn 0.1385 0.8896 0.4352
vn 0.1884 0.8765 0.4429
vn 0.2396 0.8626 0.4456
vn 0.2914 0.8477 0.4433
vn 0.3435 0.8320 0.4357
vn 0.3952 0.8154 0.4231
vn 0.4461 0.7980 0.4052
vn 0.4958 0.7797 0.3823
vn 0.5437 0.7607 0.3546
vn 0.5894 0.7409 0.3220
vn 0.6324 0.7203 0.2849
vn 0.6724 0.6990 0.2436
vn 0.7088 0.6769 0.1983
vn 0.7242 0.6669 -0.1754
vn 0.7323 0.6428 -0.2249
vn 0.7361 0.6181 -0.2760
vn 0.7355 0.5927 -0.3283
vn 0.7303 0.5667 -0.3815
vn 0.7204 0.5402 -0.4350
vn 0.7059 0.5130 -0.4884
vn 0.6866 0.4854 -0.5413
vn 0.6626 0.4572 -0.5933
vn 0.6339 0.4285 -0.6438
vn 0.6007 0.3995 -0.6925
vn 0.5632 0.3700 -0.7389
vn 0.5214 0.3401 -0.7826
vn 0.4757 0.3099 -0.8232
vn 0.4263 0.2793 -0.8604
vn 0.3736 0.2485 -0.8937
vn 0.3178 0.2174 -0.9229
vn 0.2594 0.1862 -0.9477
vn 0.1987 0.1547 -0.9678
vn 0.1362 0.1230 -0.9830
vn 0.0723 0.0913 -0.9932
vn 0.0074 0.0595 -0.9982
vn -0.0579 0.0276 -0.9979
vn -0.1232 -0.0043 -0.9924
s off
f 2/1/1 196/2/1 3/3/1
f 5/4/2 196/2/2 4/5/2
f 6/6/3 195/7/3 5/4/3
f 7/8/4 194/9/4 6/6/4
f 8/10/5 193/11/5 7/8/5
f 9/12/6 192/13/6 8/10/6
f 10/14/7 191/15/7 9/12/7
f 11/16/8 190/17/8 10/14/8
f 12/18/9 189/19/9 11/16/9
f 13/20/10 188/21/10 12/18/10
f 14/22/11 187/23/11 13/20/11
f 15/24/12 186/25/12 14/22/12
f 16/26/13 185/27/13 15/24/13
f 17/28/14 184/29/14 16/26/14
f 18/30/15 183/31/15 17/28/15
f 19/32/16 182/33/16 18/30/16
f 20/34/17 181/35/17 19/32/17
f 21/36/18 180/37/18 20/34/18
f 22/38/19 179/39/19 21/36/19
f 23/40/20 178/41/20 22/38/20
f 24/42/21 177/43/21 23/40/21
f 25/44/22 176/45/22 24/42/22
f 26/46/23 175/47/23 25/44/23
f 26/46/24 173/48/24 174/49/24
f 27/50/25 172/51/25 173/48/25
f 28/52/26 171/53/26 172/51/26
f 29/54/27 170/55/27 171/53/27
f 30/56/28 169/57/28 170/55/28
f 31/58/29 168/59/29 169/57/29
f 32/60/30 167/61/30 168/59/30
f 33/62/31 166/63/31 167/61/31
f 34/64/32 165/65/32 166/63/32
f 35/66/33 164/67/33 165/65/33
f 36/68/34 163/69/34 164/67/34
f 37/70/35 162/71/35 163/69/35
f 38/72/36 161/73/36 162/71/36
f 39/74/37 160/75/37 161/73/37
f 40/76/38 159/77/38 160/75/38
f 41/78/39 158/79/39 159/77/39
f 42/80/40 157/81/40 158/79/40
f 43/82/41 156/83/41 157/81/41
f 44/84/42 155/85/42 156/83/42
f 45/86/43 154/87/43 155/85/43
f 46/88/44 153/89/44 154/87/44
f 47/90/45 152/91/45 153/89/45
f 48/92/46 151/93/46 152/91/46
f 49/94/47 150/95/47 151/93/47
f 50/96/48 149/97/48 150/95/48
f 51/98/49 148/99/49 149/97/49
f 52/100/50 147/101/50 148/99/50
f 53/102/51 146/103/51 147/101/51
f 54/104/52 145/105/52 146/103/52
f 55/106/53 144/107/53 145/105/53
f 56/108/54 143/109/54 144/107/54
f 57/110/55 142/111/55 143/109/55
f 58/112/56 141/113/56 142/111/56
f 59/114/57 140/115/57 141/113/57
f 61/116/58 140/115/58 60/117/58
f 62/118/59 139/119/59 61/116/59
f 63/120/60 138/121/60 62/118/60
f 64/122/61 137/123/61 63/120/61
f 65/124/62 136/125/62 64/122/62
f 66/126/63 135/127/63 65/124/63
f 67/128/64 134/129/64 66/126/64
f 68/130/65 133/131/65 67/128/65
f 69/132/66 132/133/66 68/130/66
f 70/134/67 131/135/67 69/132/67
f 71/136/68 130/137/68 70/134/68
f 72/138/69 129/139/69 71/136/69
f 73/140/70 128/141/70 72/138/70
f 74/142/71 127/143/71 73/140/71
f 75/144/72 126/145/72 74/142/72
f 76/146/73 125/147/73 75/144/73
f 76/146/74 123/148/74 124/149/74
f 77/150/75 122/151/75 123/148/75
f 78/152/76 121/153/76 122/151/76
f 79/154/77 120/155/77 121/153/77
f 80/156/78 119/157/78 120/155/78
f 81/158/79 118/159/79 119/157/79
f 82/160/80 117/161/80 118/159/80
f 83/162/81 116/163/81 117/161/81
f 84/164/82 115/165/82 116/163/82
f 85/166/83 114/167/83 115/165/83
f 86/168/84 113/169/84 114/167/84
f 87/170/85 112/171/85 113/169/85
f 88/172/86 111/173/86 112/171/86
f 89/174/87 110/175/87 111/173/87
f 90/176/88 109/177/88 110/175/88
f 91/178/89 108/179/89 109/177/89
f 92/180/90 107/181/90 108/179/90
f 93/182/91 106/183/91 107/181/91
f 94/184/92 105/185/92 106/183/92
f 95/186/93 104/187/93 105/185/93
f 96/188/94 103/189/94 104/187/94
f 97/190/95 102/191/95 103/189/95
f 98/192/96 101/193/96 102/191/96
f 99/194/97 100/195/97 101/193/97
f 2/1/98 4/5/98 196/2/98
f 5/4/99 195/7/99 196/2/99
f 6/6/100 194/9/100 195/7/100
f 7/8/101 193/11/101 194/9/101
f 8/10/102 192/13/102 193/11/102
f 9/12/103 191/15/103 192/13/103
f 10/14/104 190/17/104 191/15/104
f 11/16/105 189/19/105 190/17/105
f 12/18/106 188/21/106 189/19/106
f 13/20/107 187/23/107 188/21/107
f 14/22/108 186/25/108 187/23/108
f 15/24/109 185/27/109 186/25/109
f 16/26/110 184/29/110 185/27/110
f 17/28/111 183/31/111 184/29/111
f 18/30/112 182/33/112 183/31/112
f 19/32/113 181/35/113 182/33/113
f 20/34/114 180/37/114 181/35/114
f 21/36/115 179/39/115 180/37/115
f 22/38/116 178/41/116 179/39/116
f 23/40/117 177/43/117 178/41/117
f 24/42/118 176/45/118 177/43/118
f 25/44/119 175/47/119 176/45/119
f 26/46/120 174/49/120 175/47/120
f 26/46/121 27/50/121 173/48/121
f 27/50/122 28/52/122 172/51/122
f 28/52/123 29/54/123 171/53/123
f 29/54/124 30/56/124 170/55/124
f 30/56/125 31/58/125 169/57/125
f 31/58/126 32/60/126 168/59/126
f 32/60/127 33/62/127 167/61/127
f 33/62/128 34/64/128 166/63/128
f 34/64/129 35/66/129 165/65/129
f 35/66/130 36/68/130 164/67/130
f 36/68/131 37/70/131 163/69/131
f 37/70/132 38/72/132 162/71/132
f 38/72/133 39/74/133 161/73/133
f 39/74/134 40/76/134 160/75/134
f 40/76/135 41/78/135 159/77/135
f 41/78/136 42/80/136 158/79/136
f 42/80/137 43/82/137 157/81/137
f 43/82/138 44/84/138 156/83/138
f 44/84/139 45/86/139 155/85/139
f 45/86/140 46/88/140 154/87/140
f 46/88/141 47/90/141 153/89/141
f 47/90/142 48/92/142 152/91/142
f 48/92/143 49/94/143 151/93/143
f 49/94/144 50/96/144 150/95/144
f 50/96/145 51/98/145 149/97/145
f 51/98/146 52/100/146 148/99/146
f 52/100/147 53/102/147 147/101/147
f 53/102/148 54/104/148 146/103/148
f 54/104/149 55/106/149 145/105/149
f 55/106/150 56/108/150 144/107/150
f 56/108/151 57/110/151 143/109/151
f 57/110/152 58/112/152 142/111/152
f 58/112/153 59/114/153 141/113/153
f 59/114/154 60/117/154 140/115/154
f 61/116/155 139/119/155 140/115/155
f 62/118/156 138/121/156 139/119/156
f 63/120/157 137/123/157 138/121/157
f 64/122/158 136/125/158 137/123/158
f 65/124/159 135/127/159 136/125/159
f 66/126/160 134/129/160 135/127/160
f 67/128/161 133/131/161 134/129/161
f 68/130/162 132/133/162 133/131/162
f 69/132/163 131/135/163 132/133/163
f 70/134/164 130/137/164 131/135/164
f 71/136/165 129/139/165 130/137/165
f 72/138/166 128/141/166 129/139/166
f 73/140/167 127/143/167 128/141/167
f 74/142/168 126/145/168 127/143/168
f 75/144/169 125/147/169 126/145/169
f 76/146/170 124/149/170 125/147/170
f 76/146/171 77/150/171 123/148/171
f 77/150/172 78/152/172 122/151/172
f 78/152/173 79/154/173 121/153/173
f 79/154/174 80/156/174 120/155/174
f 80/156/175 81/158/175 119/157/175
f 81/158/176 82/160/176 118/159/176
f 82/160/177 83/162/177 117/161/177
f 83/162/178 84/164/178 116/163/178
f 84/164/179 85/166/179 115/165/179
f 85/166/180 86/168/180 114/167/180
f 86/168/181 87/170/181 113/169/181
f 87/170/182 88/172/182 112/171/182
f 88/172/183 89/174/183 111/173/183
f 89/174/184 90/176/184 110/175/184
f 90/176/185 91/178/185 109/177/185
f 91/178/186 92/180/186 108/179/186
f 92/180/187 93/182/187 107/181/187
f 93/182/188 94/184/188 106/183/188
f 94/184/189 95/186/189 105/185/189
f 95/186/190 96/188/190 104/187/190
f 96/188/191 97/190/191 103/189/191
f 97/190/192 98/192/192 102/191/192
f 98/192/193 99/194/193 101/193/193
f 99/194/194 1/196/194 100/195/194
